<?xml version="1.0" encoding="iso-8859-1"?>
<!-- Generator: Adobe Illustrator 21.1.0, SVG Export Plug-In . SVG Version: 6.00 Build 0)  -->
<svg version="1.1" id="Layer_1" xmlns="http://www.w3.org/2000/svg" xmlns:xlink="http://www.w3.org/1999/xlink" x="0px" y="0px"
	 viewBox="0 0 60 60" style="enable-background:new 0 0 60 60;" xml:space="preserve">
<g>
	<path d="M21.744,14.209h3.429v17.775c0,7.055-3.468,9.223-8.04,9.223c-1.261,0-2.798-0.276-3.666-0.631l0.512-2.798
		c0.709,0.275,1.734,0.512,2.877,0.512c3.074,0,4.887-1.379,4.887-6.581V14.209z"/>
	<path d="M30.413,36.596c1.537,0.946,3.783,1.734,6.148,1.734c3.508,0,5.557-1.853,5.557-4.532c0-2.483-1.419-3.902-5.005-5.282
		c-4.336-1.537-7.016-3.784-7.016-7.528c0-4.138,3.429-7.212,8.592-7.212c2.72,0,4.69,0.63,5.873,1.3l-0.946,2.798
		c-0.867-0.473-2.641-1.261-5.045-1.261c-3.626,0-5.006,2.168-5.006,3.981c0,2.483,1.616,3.705,5.281,5.124
		c4.493,1.734,6.779,3.902,6.779,7.804c0,4.099-3.034,7.646-9.302,7.646c-2.562,0-5.359-0.749-6.778-1.695L30.413,36.596z"/>
</g>
</svg>
